{"title":"Transport z raje / Transport From Paradise(1963)","uid":10743227,"size":1558567848,"categoryP":"video","categoryS":"movies","magnet":"?xt=urn:btih:3332c823e03da155e74006eb6fc9dea1987379fb&amp;dn=Transport+z+raje+%2F+Transport+From+Paradise%281963%29&amp;tr=udp%3A%2F%2Ftracker.openbittorrent.com%3A80&amp;tr=udp%3A%2F%2Fopen.demonii.com%3A1337&amp;tr=udp%3A%2F%2Ftracker.coppersurfer.tk%3A6969&amp;tr=udp%3A%2F%2Fexodus.desync.com%3A6969","seeders":0,"leechers":1,"uploader":"app1985","files":-1,"time":1407785121,"description":" &lt;a href=&quot;http://www.imdb.com/title/tt0056609/&quot; rel=&quot;nofollow&quot; target=&quot;_NEW&quot;&gt;http://www.imdb.com/title/tt0056609/&lt;/a&gt;\n\n\nscreens:\n\n &lt;a href=&quot;\nhttp://bayimg.com/JaPeJaafm&quot; rel=&quot;nofollow&quot; target=&quot;_NEW&quot;&gt;\nhttp://bayimg.com/JaPeJaafm&lt;/a&gt;\n &lt;a href=&quot;\nhttp://bayimg.com/JaPemAAFM&quot; rel=&quot;nofollow&quot; target=&quot;_NEW&quot;&gt;\nhttp://bayimg.com/JaPemAAFM&lt;/a&gt;\n &lt;a href=&quot;\nhttp://bayimg.com/jApepAAfM&quot; rel=&quot;nofollow&quot; target=&quot;_NEW&quot;&gt;\nhttp://bayimg.com/jApepAAfM&lt;/a&gt;\n\n\nGeneral\nComplete name                  : transport-z-raje-ceskoslovensko-1962-93-min-czdub-drama.avi\nFormat                         : AVI\nFormat/Info                    : Audio Video Interleave\nFormat profile                 : OpenDML\nFile size                      : 1.45 GiB\nDuration                       : 1h 32mn\nOverall bit rate               : 2 248 Kbps\nMovie name                     : transport_from_paradise.Title2\nWriting application            : Lavf54.63.104\nOriginal source form/Name      : transport_from_paradise\n\nVideo\nID                             : 0\nFormat                         : MPEG-4 Visual\nFormat profile                 : Advanced Simple@L5\nFormat settings, BVOP          : Yes\nFormat settings, QPel          : No\nFormat settings, GMC           : No warppoints\nFormat settings, Matrix        : Default (MPEG)\nCodec ID                       : XVID\nCodec ID/Hint                  : XviD\nDuration                       : 1h 32mn\nBit rate                       : 2 012 Kbps\nWidth                          : 720 pixels\nHeight                         : 560 pixels\nDisplay aspect ratio           : 1.286\nFrame rate                     : 25.000 fps\nColor space                    : YUV\nChroma subsampling             : 4:2:0\nBit depth                      : 8 bits\nScan type                      : Progressive\nCompression mode               : Lossy\nBits/(Pixel*Frame)             : 0.200\nStream size                    : 1.30 GiB (89%)\nWriting library                : XviD 64\n\nAudio\nID                             : 1\nFormat                         : AC-3\nFormat/Info                    : Audio Coding 3\nMode extension                 : CM (complete main)\nFormat settings, Endianness    : Big\nCodec ID                       : 2000\nDuration                       : 1h 32mn\nBit rate mode                  : Constant\nBit rate                       : 224 Kbps\nChannel(s)                     : 2 channels\nChannel positions              : Front: L R\nSampling rate                  : 48.0 KHz\nBit depth                      : 16 bits\nCompression mode               : Lossy\nStream size                    : 148 MiB (10%)\nAlignment                      : Aligned on interleaves\nInterleave, duration           : 32 ms (0.80 video frame)\n\n","torrent":{"xt":"urn:btih:3332c823e03da155e74006eb6fc9dea1987379fb","amp;dn":"Transport+z+raje+%2F+Transport+From+Paradise%281963%29","amp;tr":["udp%3A%2F%2Ftracker.openbittorrent.com%3A80","udp%3A%2F%2Fopen.demonii.com%3A1337","udp%3A%2F%2Ftracker.coppersurfer.tk%3A6969","udp%3A%2F%2Fexodus.desync.com%3A6969"],"infoHash":"3332c823e03da155e74006eb6fc9dea1987379fb","infoHashBuffer":{"type":"Buffer","data":[51,50,200,35,224,61,161,85,231,64,6,235,111,201,222,161,152,115,121,251]},"announce":[],"urlList":[]}}